<?xml version="1.0" encoding="UTF-8"?>
<svg width="464px" height="503px" viewBox="0 0 464 503" version="1.1" xmlns="http://www.w3.org/2000/svg" xmlns:xlink="http://www.w3.org/1999/xlink">
    <title>card-game</title>
    <g id="Page-1" stroke="none" stroke-width="1" fill="none" fill-rule="evenodd">
        <g id="card-game" fill="#FFFFFF" fill-rule="nonzero">
            <path d="M177.364,330.531 C181.887358,330.528258 186.395365,330.004813 190.799,328.971 C199.120802,327.039287 206.915926,323.300987 213.632,318.021 L207.432,350.816 C206.978215,353.213497 208.021543,355.647014 210.070979,356.971298 C212.120414,358.295582 214.767708,358.246836 216.767,356.848 C227.020552,349.649653 239.658832,346.691347 252.042,348.591 C254.425671,348.952607 256.79427,347.852329 258.055477,345.797578 C259.316685,343.742826 259.22551,341.132738 257.824,339.171 L238.45,312.053 C266.135498,317.366772 293.671134,302.171288 303.934916,275.915284 C314.198699,249.659279 304.268484,219.817952 280.319,204.947 L191.159,149.62 C189.802966,148.778438 188.167527,148.5118 186.61441,148.879061 C185.061293,149.246322 183.718488,150.217216 182.883,151.577 L127.8,241.213 C116.632734,259.230989 116.086339,281.880384 126.371788,300.415899 C136.657237,318.951413 156.165067,330.47262 177.363,330.531 L177.364,330.531 Z M221.573,340.606 L226.288,315.676 L240.912,336.146 C234.263613,336.554574 227.728827,338.06164 221.573,340.606 L221.573,340.606 Z M132.23,282.634 C129.38444,270.627637 131.466098,257.981751 138.01,247.521 L189.952,162.994 L273.987,215.143 C295.642329,228.610023 302.395538,257.014783 289.118307,278.786993 C275.841076,300.559203 247.496428,307.560424 225.609,294.474 C224.343517,293.713582 222.841815,293.447214 221.392,293.726 L220.918,293.816 C219.271738,294.13163 217.83257,295.121533 216.949,296.546 C207.038145,312.512234 188.485804,320.936741 169.941997,317.891599 C151.398189,314.846456 136.514326,300.931274 132.23,282.634 L132.23,282.634 Z" id="Shape"></path>
            <path d="M105.274,149.594 L73.392,94.888 C71.892,92.275 68.117,91.775 64.556,92.608 C61.089,93.42 57.929,95.543 57.744,98.551 L53.456,161.724 C53.4375368,162.051302 53.4482457,162.379597 53.488,162.705 C54.188,165.705 59.076,166.734 62.356,165.966 C64.418,165.484 65.856,164.455 65.909,162.566 L66.552,149.266 L88.01,144.244 L94.488,155.873 C95.374,157.543 97.12,157.827 99.182,157.344 C102.461,156.576 106.361,153.391 105.682,150.485 C105.580653,150.173323 105.443751,149.874354 105.274,149.594 L105.274,149.594 Z M66.845,139.119 L68.263,108.444 L83.149,135.3 L66.845,139.119 Z" id="Shape"></path>
            <path d="M448.982,51.4 C441.014108,43.4486211 430.186105,39.0312343 418.93,39.14 L336.18,39.583 L333.393,27.677 C328.881069,8.40564786 309.601803,-3.56000565 290.33,0.95 L28.152,62.322 C8.89427887,66.8527982 -3.06169499,86.1171888 1.426,105.385 L87.789,474.324 C91.5839943,490.50452 105.995463,501.960119 122.615,502.007 C125.387961,502.007 128.151485,501.68398 130.851,501.05 L173.578,491.05 L421.345,489.722 C444.754381,489.570023 463.623195,470.497664 463.524389,447.088 L461.563,81.318 C461.533748,70.0652285 457.003408,59.2919416 448.982,51.4 L448.982,51.4 Z M128.116,489.366 C121.960141,490.807556 115.483746,489.744276 110.11195,486.410135 C104.740154,483.075995 100.913124,477.744194 99.473,471.588 L13.109,102.649 C10.1247407,89.8328318 18.0776709,77.0194794 30.887,74.006 L293.064,12.634 C294.859938,12.2130313 296.698384,12 298.543,12 C309.598267,12.0304733 319.184973,19.6506757 321.709,30.414 L408.071,399.353 C411.070875,412.169026 403.11526,424.990857 390.3,427.994 L171.984,479.1 C171.54622,479.152193 171.115584,479.252809 170.7,479.4 L128.116,489.366 Z M421.28,477.721 L226.044,478.767 L393.029,439.679 C402.283808,437.513037 410.298991,431.759016 415.311006,423.682967 C420.323022,415.606918 421.921235,405.87051 419.754,396.616 L338.985,51.568 L418.994,51.139 L419.162,51.139 C435.890723,51.139 449.476155,64.6544975 449.562,81.383 L451.523282,447.151 C451.594486,463.936366 438.065164,477.611973 421.28,477.721 L421.28,477.721 Z" id="Shape"></path>
        </g>
    </g>
</svg>