<?xml version="1.0" encoding="UTF-8"?>
<svg width="758px" height="652px" viewBox="0 0 758 652" version="1.1" xmlns="http://www.w3.org/2000/svg" xmlns:xlink="http://www.w3.org/1999/xlink">
    <title>Group 3</title>
    <defs>
        <linearGradient x1="67.6230268%" y1="28.9156865%" x2="50%" y2="100%" id="linearGradient-1">
            <stop stop-color="#7C947E" offset="0%"></stop>
            <stop stop-color="#516252" offset="100%"></stop>
        </linearGradient>
    </defs>
    <g id="Symbols" stroke="none" stroke-width="1" fill="none" fill-rule="evenodd">
        <g id="Smooth-Corners" transform="translate(-132.000000, -95.000000)" fill-rule="nonzero">
            <g id="Group-3" transform="translate(132.000000, 95.000000)">
                <g id="log" transform="translate(0.000000, 135.000000)">
                    <path d="M557.985073,4.76943852 C554.452242,-0.282856001 547.487858,-1.51766297 542.431381,2.01269478 C541.564557,2.61670879 520.996092,17.1294099 502.618519,43.7729737 C478.080832,79.3443407 469.071516,119.826669 476.561655,160.843088 C477.546141,166.228632 482.245164,170 487.538453,170 C488.20421,170 488.878903,169.940491 489.556575,169.817011 C495.625836,168.710147 499.647187,162.900604 498.540571,156.83666 C492.088537,121.510767 499.502716,87.9448456 520.576084,57.071696 C536.651062,33.5211005 547.82799,18.0484895 548.011184,17.9190579 C553.052767,14.3887001 561.514925,9.81429445 557.985073,4.76943852 Z" id="Path" fill="#AC5E2E"></path>
                    <path d="M514,404.991826 C514,466.298751 471.221,516 418.443043,516 L96,516 L96,294 L418.441561,294 C471.221,294 514,343.701249 514,404.991826 L514,404.991826 Z" id="Path" fill="#AC5E2E"></path>
                    <ellipse id="Oval" fill="#E8AD8C" cx="95" cy="405" rx="95" ry="111"></ellipse>
                    <path d="M616.521509,307.467417 C595.888996,364.869954 538.924416,396.922509 489.282245,379.050467 L186,269.865708 L260.71583,62 L563.998075,171.184759 C613.640246,189.055318 637.149578,250.078222 616.521509,307.467417 Z" id="Path" fill="#D77F4A"></path>
                    <path d="M564.084317,171.193119 L261.23799,62 L256,76.5952594 L518.366919,171.193119 C567.937738,189.06653 591.41328,250.094107 570.81486,307.486213 C557.236914,345.31913 527.900622,372.129987 495.287813,380.907307 C543.414894,394.392057 596.729669,362.663232 616.532258,307.486213 C637.130678,250.094107 613.655136,189.06653 564.084317,171.193119 Z" id="Path" fill="#C86D36"></path>
                    <g id="Group" transform="translate(294.000000, 136.000000)" fill="#AC5E2E">
                        <path d="M148.780235,72.6506557 C153.317262,72.6506557 157.573861,69.8414754 159.19739,65.3281967 C161.266652,59.5785246 158.280834,53.2386885 152.527636,51.1701639 L14.834631,1.65540984 C9.07995722,-0.416065574 2.74081283,2.57163934 0.671550802,8.32278689 C-1.39771123,14.072459 1.58810695,20.4122951 7.34130481,22.4808197 L145.03431,71.9955738 C146.27262,72.4396721 147.536021,72.6506557 148.780235,72.6506557 Z" id="Path"></path>
                        <path d="M192.14323,157.44541 L48.9080856,105.937377 C43.1519358,103.867377 36.8142674,106.852131 34.7450053,112.604754 C32.6757433,118.354426 35.6615615,124.694262 41.4147594,126.762787 L184.649904,178.27082 C185.888214,178.716393 187.151615,178.927377 188.395829,178.927377 C192.932856,178.927377 197.189455,176.118197 198.812984,171.604918 C200.882246,165.85377 197.896428,159.513934 192.14323,157.44541 Z" id="Path"></path>
                        <path d="M268.159829,92.7516393 L204.859893,69.9890164 C199.105219,67.9190164 192.766075,70.9037705 190.696813,76.6563934 C188.627551,82.4060656 191.613369,88.7459016 197.366567,90.8144262 L260.666503,113.577049 C261.904813,114.022623 263.168214,114.233607 264.412428,114.233607 C268.949455,114.233607 273.206053,111.424426 274.829583,106.911148 C276.898845,101.158525 273.913027,94.8201639 268.159829,92.7516393 L268.159829,92.7516393 Z" id="Path"></path>
                    </g>
                    <path d="M95.9992555,470 C68.8970919,470 46,440.233617 46,405 C46,369.766383 68.8970919,340 95.9992555,340 C123.102908,340 146,369.766383 146,405 C146,440.233617 123.102908,470 95.9992555,470 L95.9992555,470 Z" id="Path" fill="#F4D7C8"></path>
                    <ellipse id="Oval" fill="#E8AD8C" transform="translate(224.204060, 166.261209) rotate(-70.188188) translate(-224.204060, -166.261209) " cx="224.20406" cy="166.261209" rx="110.410683" ry="95.4960866"></ellipse>
                    <path d="M203.351485,227.795346 C178.225329,218.664587 166.911444,183.109313 178.646372,150.154994 C190.381301,117.200675 221.522359,97.0732864 246.648515,106.204046 C271.774671,115.334805 283.088556,150.890079 271.353628,183.844398 C259.620166,216.800199 228.479108,236.927587 203.351485,227.795346 Z" id="Path" fill="#F4D7C8"></path>
                    <path d="M758,404.991826 C758,466.298751 715.220849,516 662.442704,516 L340,516 L340,294 L662.442704,294 C715.220849,294 758,343.701249 758,404.991826 Z" id="Path" fill="#C86D36"></path>
                    <g id="Group" transform="translate(396.000000, 292.000000)" fill="#AC5E2E">
                        <path d="M266.728988,1.11703311 L221.065273,1.11703311 C273.685298,1.11703311 316.336286,50.7263576 316.336286,111.90506 C316.336286,173.098596 273.685298,222.707921 221.065273,222.707921 L266.728988,222.707921 C319.349012,222.707921 362,173.097113 362,111.90506 C362,50.7263576 319.349012,1.11703311 266.728988,1.11703311 L266.728988,1.11703311 Z" id="Path"></path>
                        <path d="M359.015347,84.2744371 L143.337224,84.2744371 C137.220163,84.2744371 132.255592,79.2900662 132.255592,73.1486093 C132.255592,67.0071523 137.220163,62.0227815 143.337224,62.0227815 L351.804898,62.0227815 C354.863429,69.0394702 357.286612,76.4863576 359.015347,84.2744371 Z" id="Path"></path>
                        <g transform="translate(0.000000, 146.860927)" id="Path">
                            <path d="M293.912971,0.496953642 L205.001339,0.496953642 C198.881322,0.496953642 193.919706,5.47835762 193.919706,11.6227815 C193.919706,17.7672053 198.881322,22.7486093 205.001339,22.7486093 L293.912971,22.7486093 C300.032988,22.7486093 304.994604,17.7672053 304.994604,11.6227815 C304.994604,5.47835762 300.034465,0.496953642 293.912971,0.496953642 Z"></path>
                            <path d="M125.797216,0.496953642 L11.5928653,0.496953642 C5.47284898,0.496953642 0.511232653,5.47835762 0.511232653,11.6227815 C0.511232653,17.7672053 5.47284898,22.7486093 11.5928653,22.7486093 L125.797216,22.7486093 C131.917233,22.7486093 136.878849,17.7672053 136.878849,11.6227815 C136.878849,5.47835762 131.917233,0.496953642 125.797216,0.496953642 Z"></path>
                        </g>
                    </g>
                    <ellipse id="Oval" fill="#E8AD8C" cx="341" cy="405" rx="95" ry="111"></ellipse>
                    <path d="M339.999255,470 C312.897092,470 290,440.233617 290,405 C290,369.766383 312.897092,340 339.999255,340 C367.102908,340 390,369.766383 390,405 C390,440.233617 367.102908,470 339.999255,470 Z" id="Path" fill="#F4D7C8"></path>
                </g>
                <g id="Group-4" transform="translate(548.011184, 120.000000) rotate(29.000000) translate(-548.011184, -120.000000) translate(463.011184, 30.000000)">
                    <path d="M88.8769629,3.63946069 C86.8531656,2.43529448 84.3518923,2.43529448 82.3288251,3.63946069 C66.8320279,12.8604827 1.60325904,54.5135247 1.60325904,102.333379 C1.60325904,127.187198 22.2274475,147.334729 47.6680107,147.334729 C55.9953672,147.334729 63.7992523,145.170648 70.534292,141.391517 C72.4653685,140.307697 74.7235233,142.223254 73.9656944,144.281944 C70.372213,154.044876 65.2842464,163.102114 58.9660855,171.178787 C56.5531526,174.263617 58.8704443,178.736336 62.8231278,178.736336 L108.871087,178.736336 C112.825231,178.736336 115.137412,174.261481 112.723019,171.175226 C106.476407,163.189703 101.433705,154.247113 97.8482549,144.610935 C97.0867756,142.564351 99.3128066,140.645233 101.250454,141.697722 C107.851888,145.284585 115.446238,147.334729 123.538507,147.334729 C148.979801,147.334729 169.603259,127.187198 169.603259,102.333379 C169.603259,54.5135247 104.37449,12.8604827 88.8769629,3.63946069 Z" id="Path" fill="url(#linearGradient-1)"></path>
                    <path d="M68.2770426,140.975013 C14.3488472,113.130198 65.0020048,29.6255463 88.5708658,0.968505173 C87.2365066,0.876996724 85.8831286,1.1266942 84.6872263,1.8076873 C68.5395021,10.9932912 0.570865787,52.4863431 0.570865787,100.121811 C0.570865787,124.880167 22.0613521,144.950311 48.57052,144.950311 C55.601391,144.950311 62.2632972,143.51455 68.2770426,140.975013 Z" id="Path" fill="#495546"></path>
                    <path d="M80.9417262,170.859727 C84.1541764,147.733673 84.0148128,141.152822 75.7962941,141.152822 C77.2371726,141.407165 78.3442081,142.739564 77.7552589,144.160607 C73.8806344,153.50922 68.3934859,162.181405 61.5788395,169.916001 C58.9765973,172.869235 61.4756946,177.152822 65.7384902,177.152822 L84.5195139,177.152822 C80.7692932,177.152822 80.6212685,173.169945 80.9417262,170.859727 Z" id="Path" fill="#495546"></path>
                </g>
                <g id="Group-2" transform="translate(225.000000, 304.951834) rotate(11.000000) translate(-225.000000, -304.951834) translate(188.000000, 270.951834)">
                    <path d="M0,20.9172553 C0,9.36489445 9.08438743,0 20.2904214,0 C25.8447501,0 30.8735038,2.30379642 34.5354399,6.03263519 C35.8935517,7.41504523 38.1067708,7.41504523 39.4645601,6.03263519 C43.1268186,2.30412691 48.1555723,0 53.7095786,0 C64.9156126,0 74,9.36489445 74,20.9172553 L74,20.9172553 C74,42.5205932 46.8587239,62.1737514 39.067638,67.3699343 C37.8081926,68.2100219 36.191485,68.2100219 34.9320395,67.3699343 C27.1415985,62.1737514 0,42.5209237 0,20.9172553" id="Path" fill="#FF6464"></path>
                    <path d="M29.3138883,1.82458289 C26.7229567,0.661621979 23.8611428,0 20.8387204,0 C9.32987076,0 0,9.36482618 0,20.9174333 C0,42.5206137 27.8747026,62.1736286 35.8763235,67.3697737 C36.523063,67.7898144 37.2615315,68 38,68 C9.52226996,29.205554 19.6551838,7.49628938 29.3138883,1.82458289 Z" id="Path" fill="#D2555A"></path>
                </g>
                <path d="M343.187554,504.079123 C352.54684,516.182703 366.817649,530.453528 378.921196,539.812959 C380.359601,540.925213 380.359601,543.074787 378.921196,544.187041 C366.817649,553.546472 352.54684,567.816969 343.187554,579.920877 C342.075122,581.359708 339.924551,581.359708 338.812446,579.920877 C329.45316,567.817297 315.182351,553.546472 303.078804,544.187041 C301.640399,543.074787 301.640399,540.925213 303.078804,539.812959 C315.182023,530.453528 329.452833,516.182703 338.812119,504.079123 C339.924551,502.640292 342.074794,502.640292 343.187554,504.079123 Z" id="Path" fill="#FF6464"></path>
                <path d="M338.964339,579.927945 C334.613905,567.822108 327.98106,553.548624 322.355509,544.187449 C321.686948,543.074987 321.686948,540.925013 322.355509,539.812551 C327.98106,530.451376 334.614235,516.178219 338.964339,504.072055 C339.180377,503.470494 339.621357,503.206371 340,503.089201 C338.970606,502.824749 337.819835,503.147131 337.098831,504.072055 C327.666733,516.178219 313.284904,530.451703 301.087196,539.812551 C299.637601,540.925013 299.637601,543.074987 301.087196,544.187449 C313.284904,553.548297 327.666733,567.821781 337.098831,579.927945 C337.819506,580.852869 338.970606,581.175251 340,580.910799 C339.621357,580.793957 339.180707,580.529833 338.964339,579.927945 Z" id="Path" fill="#D2555A"></path>
                <path d="M119.398177,532.865385 C112.982838,532.497189 107.367614,536.03563 104.674184,541.315795 C104.079631,542.481751 103.088373,543.397547 101.845948,543.808331 C101.830523,543.813361 101.815097,543.818726 101.799672,543.823421 C100.743359,544.171497 99.6877169,543.271126 99.8533736,542.170896 C100.217215,539.754481 100.788629,537.406139 101.546492,535.142301 C101.957951,533.913303 102.857661,532.926416 104.013569,532.339917 C109.308546,529.652217 112.859098,524.029006 112.490563,517.603005 C112.039869,509.747142 105.504479,503.32986 97.6424942,503.012969 C88.7808687,502.655504 81.484598,509.733728 81.484598,518.515784 C81.484598,524.56554 84.9536632,529.793057 90.0065268,532.349306 C91.1520393,532.928763 92.0410187,533.908608 92.4491243,535.12587 C93.2093341,537.394738 93.7830963,539.748781 94.1479434,542.170896 C94.3132647,543.270791 93.257958,544.171497 92.2016453,543.823421 C92.1858844,543.818391 92.1697882,543.813026 92.1540274,543.80766 C90.9126084,543.396876 89.9220218,542.481751 89.327804,541.316801 C86.6350448,536.035966 81.0194851,532.496853 74.6031397,532.86505 C66.747191,533.315738 60.3298396,539.851058 60.0129458,547.712957 C59.6558115,556.574487 66.7341128,563.870678 75.5159281,563.870678 C81.5463001,563.870678 86.7591196,560.424118 89.3244506,555.398471 C89.9213511,554.229162 90.9166324,553.311019 92.1627461,552.898893 C92.1771656,552.894199 92.1915852,552.889169 92.2060047,552.884474 C93.2629881,552.536398 94.3156121,553.437775 94.1523028,554.53834 C93.0567556,561.909311 90.0353658,568.650525 85.6162899,574.237521 C84.7323405,575.355188 85.5508991,577 86.9760829,577 L107.023893,577 C108.449077,577 109.267635,575.355188 108.383686,574.237521 C103.96461,568.650525 100.94322,561.909311 99.8476728,554.53834 C99.6840282,553.437439 100.736652,552.536398 101.793971,552.884474 C101.80839,552.889169 101.82281,552.894199 101.837229,552.898893 C103.083679,553.311019 104.078625,554.229498 104.675525,555.398471 C107.240856,560.424453 112.453676,563.870678 118.484048,563.870678 C127.266533,563.870678 134.344499,556.574151 133.98703,547.712957 C133.671477,539.851393 127.254126,533.316074 119.398177,532.865385 Z" id="Path" fill="#515262"></path>
                <g id="Group" transform="translate(60.000000, 503.000000)" fill="#464655">
                    <path d="M9.91591261,44.3796332 C10.1661946,38.1866634 14.3426528,32.8472814 19.9993499,30.8454184 C18.1849683,30.2109819 16.2142417,29.9072174 14.1544537,30.0248978 C6.53970658,30.4606069 0.319387458,36.7787134 0.0125482853,44.3793091 C-0.333620909,52.9463101 6.527355,60 15.0395417,60 C16.7798139,60 18.4469517,59.698829 20,59.1558136 C13.9412265,57.0508587 9.64060246,51.2018527 9.91591261,44.3796332 Z" id="Path"></path>
                    <path d="M33.7295459,25.0531096 C33.011437,22.6329421 31.9132868,17.8452763 31.9132868,15.136573 C31.9132868,7.63398829 36.1301837,2.92777988 42,0.861902904 C40.6317862,0.373158613 39.1812517,0.0735001322 37.6780061,0.0126524494 C29.0792458,-0.336076743 22,6.56915384 22,15.136573 C22,20.7855934 25.0875104,25.6926646 29.6506093,28.2901409 L29.6506093,28.2901409 C29.8552719,28.4066021 30.0583077,28.5246989 30.2688272,28.6316731 C31.3803179,29.1972948 32.2435453,30.1528651 32.6388794,31.3403764 C33.376511,33.5537926 33.9335578,35.8503019 34.2872436,38.2132203 C34.4255291,39.1360768 33.6856199,39.9104126 32.8240194,39.8937286 L32.8272732,39.9051784 C33.1780305,40.0278552 35.3541575,40.2679745 35.8178209,38.8164629 C36.2681439,37.4087877 35.5601217,31.2222795 33.7295459,25.0531096 Z" id="Path"></path>
                    <path d="M58.2491822,30.0283979 C51.7642074,29.6301912 46.0880324,33.4570371 43.3653667,39.1675674 C42.7643599,40.4285552 41.762343,41.4189946 40.5064321,41.8632598 C40.4908391,41.8686997 40.149828,41.9608168 40,41.9626301 L40,41.9626301 C40,41.9626301 45.8419349,42.8312139 50.515415,36.193348 C53.2716395,32.278737 56.236335,30.6761184 60,30.2576024 C59.4250945,30.1491655 58.8430705,30.0646644 58.2491822,30.0283979 Z" id="Path"></path>
                    <path d="M58.2491822,61.9716021 C51.7642074,62.3698088 46.0880324,58.5429629 43.3653667,52.8324326 C42.7643599,51.5714448 41.762343,50.5810054 40.5064321,50.1367402 C40.4908391,50.1313003 40.149828,50.0391832 40,50.0373699 L40,50.0373699 C40,50.0373699 45.8419349,49.1687861 50.515415,55.806652 C53.2716395,59.721263 56.236335,61.3238816 60,61.7423976 C59.4250945,61.8508345 58.8430705,61.9349729 58.2491822,61.9716021 Z" id="Path"></path>
                    <path d="M31.6685968,71.2028352 C33.5773596,66.1836934 35.5069051,52.1398073 32.237199,50 C32.237199,50 32.690522,50.7653325 32.6207051,51.2563134 C31.5598123,58.7198336 28.6339953,65.5456899 24.3547037,71.2028352 C23.4987155,72.3345359 24.2913814,74 25.6714838,74 L32.9853768,74 C31.6055992,74 31.1587708,72.5436951 31.6685968,71.2028352 Z" id="Path"></path>
                </g>
            </g>
        </g>
    </g>
</svg>