<?xml version="1.0" encoding="UTF-8"?>
<svg width="82px" height="89px" viewBox="0 0 82 89" version="1.1" xmlns="http://www.w3.org/2000/svg" xmlns:xlink="http://www.w3.org/1999/xlink">
    <title>EmptyState</title>
    <g id="Page-1" stroke="none" stroke-width="1" fill="none" fill-rule="evenodd">
        <g id="Card---Inbox" transform="translate(-164.000000, -103.000000)">
            <g id="Group" transform="translate(75.000000, 50.000000)">
                <path d="M118.118551,113.306628 C118.040412,113.859855 118,114.425208 118,115 C118,121.627417 123.372583,127 130,127 C136.627417,127 142,121.627417 142,115 C142,114.425208 141.959588,113.859855 141.881449,113.306628 L171,113.306628 L171,140 C171,141.656854 169.656854,143 168,143 L92,143 C90.3431458,143 89,141.656854 89,140 L89,113.306628 L118.118551,113.306628 Z" id="Path" fill-opacity="0" fill="#FFFFFF"></path>
                <path d="M143,113 C143,120.179702 137.179702,126 130,126 C122.820298,126 117,120.179702 117,113 C117,112.767399 117.006109,112.536224 117.018175,112.306628 L89,112.306628 L98.5604397,84.0388533 C98.9725967,82.8202106 100.115851,82 101.402305,82 L158.597695,82 C159.884149,82 161.027403,82.8202106 161.43956,84.0388533 L171,112.306628 L142.981825,112.306628 C142.993891,112.536224 143,112.767399 143,113 Z" id="Path" fill-opacity="0" fill="#FFFFFF"></path>
                <path d="M141.097561,113.954545 C141.097561,119.502497 136.129014,125 130,125 C123.870986,125 118.902439,119.502497 118.902439,113.954545 C118.902439,113.774808 118.907654,112.596173 118.917954,112.418758 L98,112.418758 L106.161351,92.5754775 C106.513192,91.6337991 107.489141,91 108.587333,91 L151.412667,91 C152.510859,91 153.486808,91.6337991 153.838649,92.5754775 L162,112.418758 L141.082046,112.418758 C141.092346,112.596173 141.097561,113.774808 141.097561,113.954545 Z" id="Path" fill="#E8F0FE"></path>
                <path d="M158.597695,83.25 C158.972911,83.25 159.327243,83.369614 159.617825,83.5780874 C159.908407,83.7865608 160.135237,84.0838936 160.25545,84.4393311 L160.25545,84.4393311 L169.75,112.512287 L169.75,139 C169.75,139.483249 169.554125,139.920749 169.237437,140.237437 C168.920749,140.554125 168.483249,140.75 168,140.75 L168,140.75 L92,140.75 C91.5167508,140.75 91.0792508,140.554125 90.7625631,140.237437 C90.4458754,139.920749 90.25,139.483249 90.25,139 L90.25,139 L90.25,112.512287 L99.7445502,84.4393311 C99.8647626,84.0838936 100.091593,83.7865608 100.382175,83.5780874 C100.672757,83.369614 101.027089,83.25 101.402305,83.25 L101.402305,83.25 Z" id="Rectangle" stroke="#75A4FE" stroke-width="2.5"></path>
                <path d="M95.5737305,112 L98,112 L95.5737305,112 Z M103,112 C106.93657,112 111.184873,112 115.744911,112 C117.621191,112 117.621191,113.318576 117.621191,114 C117.621191,120.627417 123.117382,126 129.897276,126 C136.677171,126 142.173361,120.627417 142.173361,114 C142.173361,113.318576 142.173361,112 144.049641,112 L169,112" id="Shape" stroke="#75A4FE" stroke-width="2.5" stroke-linecap="round" stroke-linejoin="round"></path>
                <path d="M129.099609,55 L129.099609,71.7558594 M103,59.3027344 L114.099609,71.7558594 M155.099609,59.3027344 L144,71.7558594" id="lines" stroke="#A4C3FE" stroke-width="2.5" stroke-linecap="round" stroke-linejoin="round"></path>
            </g>
        </g>
    </g>
</svg>